<svg xmlns="http://www.w3.org/2000/svg" width="947.561" height="948.133" viewBox="0 0 947.561 948.133">
  <g id="Gruppe_9" data-name="Gruppe 9" transform="translate(-105.854 -81.867)">
    <path id="Pfad_19" data-name="Pfad 19" d="M4422.913-414.265l-51.733,34.4,13.067-73.333,21.333-44.533,43.467,16.533Z" transform="translate(-3980 1180)" fill="#4b6896" stroke="#707070" stroke-width="1"/>
    <path id="Pfad_16" data-name="Pfad 16" d="M4086.689-150.331s-10.854-48.335,45.7-105.575c31.612-32,84.155-72.179,114.8-83.9s65.706-39.487,65.706-39.487L4769.4-426.1s136.991,18.21,202.11,86.3,61.881,189.471,61.881,189.471Z" transform="translate(-3980 1180)" fill="#95b2e3"/>
    <path id="Pfad_15" data-name="Pfad 15" d="M4360.877-374.428s82.818,151.72,239.2,163.068,182.346-182.972,182.346-182.972L4802.518-150H4374.385Z" transform="translate(-3980 1180)" fill="#fff"/>
    <path id="Pfad_14" data-name="Pfad 14" d="M4723.338-426s22.054,13.183,33.44,43.381,12.1,77.413,12.1,77.413-9.145,77.764-136.038,99.7-253.077-132.373-253.077-132.373l-29.7-38.614s44.068-15.108,65.108-43.079c19.883-26.432,10.846-90.078,11.267-95.091,0,.027,260.264,54.01,260.264,54.01Z" transform="translate(-3980 1180)" fill="#e9d7c7"/>
    <path id="Pfad_17" data-name="Pfad 17" d="M4404.8-492.577l-84.274,89.232s-27.941,24.111-30.646,81.57,19.829,148.269,19.829,148.269l32.448-17.576,33.665,40.56h88.917s-62.756-75.036-83.824-159.085S4404.8-492.577,4404.8-492.577Z" transform="translate(-3980 1180)" fill="#7595c9"/>
    <path id="Pfad_18" data-name="Pfad 18" d="M4688.489-492.577s48.672,7.774,80.218,34.363c11.2,9.439,9.352,11.154,39.208,59.037,8.231,13.2,16.8,27.413,24.786,41.461,8.437,14.851,16.241,29.5,24.336,42.813,11.022,18.131,21.8,31.17,31.1,48.221,34.138,62.642,22.533,62.192,22.533,62.192l-38.757-18.477s-3.494,28.73-7.211,46.869-7.661,25.688-7.661,25.688H4766a277.28,277.28,0,0,0,14.872-76.613c1.077-25.387-7.756-54.754-12.168-82.021-3.536-21.856-2.042-41.992-7.21-60.389-7.372-26.239-26.833-40.684-40.35-52.459-25.825-22.5-47.98-25.956-47.98-25.956Z" transform="translate(-3980 1180)" fill="#7695c9"/>
    <path id="Pfad_13" data-name="Pfad 13" d="M4437.239-505.911s6.854,75.4,0,72.355-43.413-48.744-43.413-48.744l-21.326,8.378,6.854-46.459-22.849-16.756V-573.7s-30.256-7.34-47.012-30.76-20.011-62.92-20.011-62.92-14.471,11.424-14.471,7.616.9-25.816,0-69.08c-.23-11.032-27.259-52.728-27.259-52.728l11.043-38.983-31.546,12.619s-1.352-30.983,12.619-56.333,43.264-45.067,43.264-45.067L4270.514-919.7s11.042-28.054,31.547-50.925,50.475-40.56,50.475-40.56l3.972-19.379s52.534-30.76,90.961-43.671,62.746-7.973,62.746-7.973l5.894-13.52,20.106,6.587-5.482-8.994s44.412.348,53.6,2.408c20.106,4.507,32.309,24.613,32.309,24.613h20.453l6.934,10.4,25.653-10.4,19.413,12.48v-12.48l33.974,21.147s38.28-4.158,62.98,3.556a66.242,66.242,0,0,1,35.819,27.3l-29.814-4.16s26.827,17.159,33.805,29.466-5.893,19.76-5.893,19.76,6.111.953,9.36,17.68,3.635,49.228,3.635,49.228l-15.253-9.013s32.765,47.492,34.151,64.479-10.4,29.467-10.4,29.467l-8.5-15.339s-4.715,44.111-11.093,67.947-14.419,27.394-14.419,27.394l3.325,46.446-10.747-7.627s4.4,19.656,1.373,28.186-13.469,5.934-13.469,5.934,2.867,15.4,0,20.533-11.466,0-11.466,0l-4.534,8.533-13.728,3.768-10.22,39.887Z" transform="translate(-3980 1180)" fill="#ad9e86"/>
    <path id="face" d="M4744.491-764.409c-8.788-20.505-12.889-93.885-93.153-103.112s-202.709,58-224.973,77.92c-13.558,12.131-30.318,60.491-43.94,86.122s-10.546,16.4-10.546,16.4.293,12.889,10.546,59.758,9.374,54.486,29.293,115.416c14.8,45.271,50.384,83.779,73.819,100.769s39.846,14.982,54.485,21.677c31.306,14.316,59.785,28.236,84.951,26.364,70.89-5.273,140.608-189.821,140.608-213.841s4.27-18.471,0-46.869C4759.028-667.395,4749.826-751.962,4744.491-764.409Z" transform="translate(-3980 1180)" fill="#f9e9db"/>
    <path id="Brille" d="M-3843.395,1368.647a81.485,81.485,0,0,1-17.65-2.011,109.292,109.292,0,0,1-18.425-5.974c-9.958-4.181-17.816-11.721-24.024-23.053-5.331-9.733-8.479-20.407-11.257-29.824-3.074-10.422-5.5-18.654-9.668-21-23.472-13.226-38.476-16-46.929-16-5.93,0-8.626,1.387-8.653,1.4l5.113-19.174a111.752,111.752,0,0,0,11.858,4.325c6.438,1.973,16.07,4.325,25.391,4.325a44.571,44.571,0,0,0,10.02-1.056c7.777-1.8,15.271-5.78,23.948-10.384a223.461,223.461,0,0,1,22.737-10.917,123.5,123.5,0,0,1,29.824-7.789,113.657,113.657,0,0,1,14.73-.918,159.29,159.29,0,0,1,24.093,1.962,212.02,212.02,0,0,1,20.787,4.315,193.144,193.144,0,0,1,20.1,6.277,63.443,63.443,0,0,1,7.851-3.715,75.061,75.061,0,0,1,19.495-4.96,144.008,144.008,0,0,1,15.157-.737c9.274,0,16.618.73,16.691.737a276.569,276.569,0,0,1,23.747-16.252,231.53,231.53,0,0,1,23.505-12.723,125.612,125.612,0,0,1,25.767-9.041,98.366,98.366,0,0,1,20.623-2.367c12.362,0,21.106,2.9,28.132,5.235,4.232,1.4,7.886,2.618,11.463,2.951,12.072,1.123,18.909,1.72,19.194,1.745h.006l9.261,11.279a39.794,39.794,0,0,0-6.266,3.161c-3.008,1.873-6.878,4.926-8.231,8.834-.438,1.266-.345,4.535-.217,9.059v.009a205.825,205.825,0,0,1-.281,22.16,122.17,122.17,0,0,1-1.777,13.593,93.769,93.769,0,0,1-3.812,14.1,74.3,74.3,0,0,1-6.556,13.741,64.38,64.38,0,0,1-10.008,12.505,65.939,65.939,0,0,1-14.168,10.4,82.73,82.73,0,0,1-19.036,7.413,70.836,70.836,0,0,1-17.777,2.274,72.959,72.959,0,0,1-18.42-2.391,78.187,78.187,0,0,1-16.69-6.5,79.679,79.679,0,0,1-14.255-9.606,71.823,71.823,0,0,1-11.112-11.7,77.566,77.566,0,0,1-9.9-17.835,94.67,94.67,0,0,1-4.888-16.717,87.366,87.366,0,0,1-1.8-17.229,109.859,109.859,0,0,0-13.759-.873,72.467,72.467,0,0,0-11.841.873,63.722,63.722,0,0,0-15.009,4.664,59.1,59.1,0,0,0-6.227,3.191l0,.012c.1.619.627,3.968,1,9.127a145.393,145.393,0,0,1-.089,22.205,103.222,103.222,0,0,1-5.837,27.45c-3.783,10.125-9.247,18.494-16.24,24.874a132.244,132.244,0,0,1-14.718,11.715,95.7,95.7,0,0,1-14.764,8.288,77,77,0,0,1-14.948,4.926A72.312,72.312,0,0,1-3843.395,1368.647Zm15.547-132.474c-28.386,0-54.2,7.652-76.718,22.739-4.791,1.687-8.013,7.176-9.318,15.873-3.246,21.629,6.946,62.676,30.918,80.394,14.351,8.479,29.435,10.259,39.561,10.26,8.683,0,17.4-1.31,23.906-3.594,13.736-4.82,38.067-21.12,46.666-40.8,6.312-14.445,7.644-30.57,7.649-41.553a131.042,131.042,0,0,0-1.516-20.58,36.654,36.654,0,0,0-3.766-6.333c-2.281-3.1-6.069-7.205-11.166-9.134C-3788.774,1240.744-3806.545,1236.172-3827.848,1236.173Zm210.924-37.477c-17.846,0-36.4,6.274-48.829,11.536-16.03,6.789-28.26,14.652-33.269,19.434-7.173,6.846-10.509,13.288-12.044,17.487a23.512,23.512,0,0,0-1.629,7.547,89.458,89.458,0,0,0,2.947,18.537c2.524,9.625,7.776,23.32,18.459,33.9,14.87,14.733,32.383,22.2,52.054,22.2a84.688,84.688,0,0,0,9.8-.584c26.915-3.153,35.53-13.135,50.966-33.61,8.6-18.428,12.253-37.354,10.287-53.291-2.2-17.839-11.269-31.167-26.223-38.543C-3600.617,1200.249-3608.193,1198.7-3616.923,1198.7Z" transform="translate(4359.299 -764.379)"/>
    <path id="ear" d="M4399.847-532.308c8.521-3.567-1.437-21.128-4.718-48.82s-14.546-45.453-25.23-60.513c-8.969-12.642-35.026-28-42.667-18.667s-8.205,20.1,12.1,56c6.966,12.313,3.9,28.718,20.717,44.923S4388.257-527.456,4399.847-532.308Z" transform="translate(-3980 1180)" fill="#e7ccba"/>
  </g>
</svg>
